<mxfile host="app.diagrams.net" modified="2021-10-14T23:24:44.410Z" agent="5.0 (Windows NT 10.0; Win64; x64) AppleWebKit/537.36 (KHTML, like Gecko) Chrome/94.0.4606.61 Safari/537.36" etag="n97RIEcDzIy4M5QSJ3bV" version="15.5.2" type="github">
  <diagram id="C5RBs43oDa-KdzZeNtuy" name="Page-1">
    <mxGraphModel dx="1038" dy="579" grid="1" gridSize="10" guides="1" tooltips="1" connect="1" arrows="1" fold="1" page="1" pageScale="1" pageWidth="827" pageHeight="1169" math="0" shadow="0">
      <root>
        <mxCell id="WIyWlLk6GJQsqaUBKTNV-0" />
        <mxCell id="WIyWlLk6GJQsqaUBKTNV-1" parent="WIyWlLk6GJQsqaUBKTNV-0" />
        <mxCell id="Yk_99B-b_8awWAHzNRga-0" value="Habit" style="swimlane;fontStyle=1;align=center;verticalAlign=top;childLayout=stackLayout;horizontal=1;startSize=26;horizontalStack=0;resizeParent=1;resizeParentMax=0;resizeLast=0;collapsible=1;marginBottom=0;" parent="WIyWlLk6GJQsqaUBKTNV-1" vertex="1">
          <mxGeometry x="160" y="40" width="160" height="168" as="geometry" />
        </mxCell>
        <mxCell id="Yk_99B-b_8awWAHzNRga-1" value="Responsibilities&#xa;-Â " style="text;strokeColor=none;fillColor=none;align=left;verticalAlign=top;spacingLeft=4;spacingRight=4;overflow=hidden;rotatable=0;points=[[0,0.5],[1,0.5]];portConstraint=eastwest;" parent="Yk_99B-b_8awWAHzNRga-0" vertex="1">
          <mxGeometry y="26" width="160" height="54" as="geometry" />
        </mxCell>
        <mxCell id="Yk_99B-b_8awWAHzNRga-2" value="" style="line;strokeWidth=1;fillColor=none;align=left;verticalAlign=middle;spacingTop=-1;spacingLeft=3;spacingRight=3;rotatable=0;labelPosition=right;points=[];portConstraint=eastwest;" parent="Yk_99B-b_8awWAHzNRga-0" vertex="1">
          <mxGeometry y="80" width="160" height="18" as="geometry" />
        </mxCell>
        <mxCell id="Yk_99B-b_8awWAHzNRga-3" value="Collaborators" style="text;strokeColor=none;fillColor=none;align=left;verticalAlign=top;spacingLeft=4;spacingRight=4;overflow=hidden;rotatable=0;points=[[0,0.5],[1,0.5]];portConstraint=eastwest;" parent="Yk_99B-b_8awWAHzNRga-0" vertex="1">
          <mxGeometry y="98" width="160" height="70" as="geometry" />
        </mxCell>
        <mxCell id="Yk_99B-b_8awWAHzNRga-29" value="HabitEvent" style="swimlane;fontStyle=1;align=center;verticalAlign=top;childLayout=stackLayout;horizontal=1;startSize=26;horizontalStack=0;resizeParent=1;resizeParentMax=0;resizeLast=0;collapsible=1;marginBottom=0;" parent="WIyWlLk6GJQsqaUBKTNV-1" vertex="1">
          <mxGeometry x="520" y="40" width="160" height="168" as="geometry" />
        </mxCell>
        <mxCell id="Yk_99B-b_8awWAHzNRga-30" value="Responsibilities" style="text;strokeColor=none;fillColor=none;align=left;verticalAlign=top;spacingLeft=4;spacingRight=4;overflow=hidden;rotatable=0;points=[[0,0.5],[1,0.5]];portConstraint=eastwest;" parent="Yk_99B-b_8awWAHzNRga-29" vertex="1">
          <mxGeometry y="26" width="160" height="54" as="geometry" />
        </mxCell>
        <mxCell id="Yk_99B-b_8awWAHzNRga-31" value="" style="line;strokeWidth=1;fillColor=none;align=left;verticalAlign=middle;spacingTop=-1;spacingLeft=3;spacingRight=3;rotatable=0;labelPosition=right;points=[];portConstraint=eastwest;" parent="Yk_99B-b_8awWAHzNRga-29" vertex="1">
          <mxGeometry y="80" width="160" height="18" as="geometry" />
        </mxCell>
        <mxCell id="Yk_99B-b_8awWAHzNRga-32" value="Collaborators" style="text;strokeColor=none;fillColor=none;align=left;verticalAlign=top;spacingLeft=4;spacingRight=4;overflow=hidden;rotatable=0;points=[[0,0.5],[1,0.5]];portConstraint=eastwest;" parent="Yk_99B-b_8awWAHzNRga-29" vertex="1">
          <mxGeometry y="98" width="160" height="70" as="geometry" />
        </mxCell>
        <mxCell id="Yk_99B-b_8awWAHzNRga-33" value="Profile" style="swimlane;fontStyle=1;align=center;verticalAlign=top;childLayout=stackLayout;horizontal=1;startSize=26;horizontalStack=0;resizeParent=1;resizeParentMax=0;resizeLast=0;collapsible=1;marginBottom=0;" parent="WIyWlLk6GJQsqaUBKTNV-1" vertex="1">
          <mxGeometry x="160" y="320" width="220" height="518" as="geometry" />
        </mxCell>
        <mxCell id="Yk_99B-b_8awWAHzNRga-34" value="Responsibilities" style="text;strokeColor=none;fillColor=none;align=left;verticalAlign=top;spacingLeft=4;spacingRight=4;overflow=hidden;rotatable=0;points=[[0,0.5],[1,0.5]];portConstraint=eastwest;" parent="Yk_99B-b_8awWAHzNRga-33" vertex="1">
          <mxGeometry y="26" width="220" height="54" as="geometry" />
        </mxCell>
        <mxCell id="0FXhxWGF-coyDp48GXa7-0" value="&lt;span id=&quot;docs-internal-guid-4743c47a-7fff-aca5-1015-05a1c3894e4b&quot; style=&quot;font-size: 10px&quot;&gt;&lt;ul style=&quot;margin-top: 0 ; margin-bottom: 0&quot;&gt;&lt;ul style=&quot;margin-top: 0 ; margin-bottom: 0&quot;&gt;&lt;li dir=&quot;ltr&quot; style=&quot;list-style-type: circle ; font-family: &amp;#34;arial&amp;#34; ; background-color: transparent ; vertical-align: baseline&quot;&gt;&lt;p dir=&quot;ltr&quot; style=&quot;line-height: 1.2 ; background-color: rgb(255 , 255 , 255) ; margin-top: 0pt ; margin-bottom: 0pt&quot;&gt;&lt;span style=&quot;background-color: transparent ; vertical-align: baseline&quot;&gt;Attributes:&lt;/span&gt;&lt;/p&gt;&lt;/li&gt;&lt;li dir=&quot;ltr&quot; style=&quot;list-style-type: circle ; font-family: &amp;#34;arial&amp;#34; ; background-color: transparent ; vertical-align: baseline ; margin-left: 36pt&quot;&gt;&lt;p dir=&quot;ltr&quot; style=&quot;line-height: 1.2 ; background-color: rgb(255 , 255 , 255) ; margin-top: 0pt ; margin-bottom: 0pt&quot;&gt;&lt;span style=&quot;background-color: transparent ; vertical-align: baseline&quot;&gt;Username (Required: Used as the unique identifier for a profile)&lt;/span&gt;&lt;/p&gt;&lt;/li&gt;&lt;/ul&gt;&lt;li dir=&quot;ltr&quot; style=&quot;list-style-type: disc ; font-family: &amp;#34;arial&amp;#34; ; background-color: transparent ; vertical-align: baseline ; margin-left: 72pt&quot;&gt;&lt;p dir=&quot;ltr&quot; style=&quot;line-height: 1.2 ; background-color: rgb(255 , 255 , 255) ; margin-top: 0pt ; margin-bottom: 0pt&quot;&gt;&lt;span style=&quot;background-color: transparent ; vertical-align: baseline&quot;&gt;Name&lt;/span&gt;&lt;/p&gt;&lt;/li&gt;&lt;li dir=&quot;ltr&quot; style=&quot;list-style-type: disc ; font-family: &amp;#34;arial&amp;#34; ; background-color: transparent ; vertical-align: baseline ; margin-left: 72pt&quot;&gt;&lt;p dir=&quot;ltr&quot; style=&quot;line-height: 1.2 ; background-color: rgb(255 , 255 , 255) ; margin-top: 0pt ; margin-bottom: 0pt&quot;&gt;&lt;span style=&quot;background-color: transparent ; vertical-align: baseline&quot;&gt;Age (optional)&lt;/span&gt;&lt;/p&gt;&lt;/li&gt;&lt;li dir=&quot;ltr&quot; style=&quot;list-style-type: disc ; font-family: &amp;#34;arial&amp;#34; ; background-color: transparent ; vertical-align: baseline ; margin-left: 72pt&quot;&gt;&lt;p dir=&quot;ltr&quot; style=&quot;line-height: 1.2 ; background-color: rgb(255 , 255 , 255) ; margin-top: 0pt ; margin-bottom: 0pt&quot;&gt;&lt;span style=&quot;background-color: transparent ; vertical-align: baseline&quot;&gt;Date started&lt;/span&gt;&lt;/p&gt;&lt;/li&gt;&lt;li dir=&quot;ltr&quot; style=&quot;list-style-type: disc ; font-family: &amp;#34;arial&amp;#34; ; background-color: transparent ; vertical-align: baseline ; margin-left: 72pt&quot;&gt;&lt;p dir=&quot;ltr&quot; style=&quot;line-height: 1.2 ; background-color: rgb(255 , 255 , 255) ; margin-top: 0pt ; margin-bottom: 0pt&quot;&gt;&lt;span style=&quot;background-color: transparent ; vertical-align: baseline&quot;&gt;List of Habits&lt;/span&gt;&lt;/p&gt;&lt;/li&gt;&lt;li dir=&quot;ltr&quot; style=&quot;list-style-type: disc ; font-family: &amp;#34;arial&amp;#34; ; background-color: transparent ; vertical-align: baseline ; margin-left: 72pt&quot;&gt;&lt;p dir=&quot;ltr&quot; style=&quot;line-height: 1.2 ; background-color: rgb(255 , 255 , 255) ; margin-top: 0pt ; margin-bottom: 0pt&quot;&gt;&lt;span style=&quot;background-color: transparent ; vertical-align: baseline&quot;&gt;Following: A List of Profiles&lt;/span&gt;&lt;/p&gt;&lt;/li&gt;&lt;li dir=&quot;ltr&quot; style=&quot;list-style-type: disc ; font-family: &amp;#34;arial&amp;#34; ; background-color: transparent ; vertical-align: baseline ; margin-left: 72pt&quot;&gt;&lt;p dir=&quot;ltr&quot; style=&quot;line-height: 1.2 ; background-color: rgb(255 , 255 , 255) ; margin-top: 0pt ; margin-bottom: 0pt&quot;&gt;&lt;span style=&quot;background-color: transparent ; vertical-align: baseline&quot;&gt;Followers: A List of Profiles&lt;/span&gt;&lt;/p&gt;&lt;/li&gt;&lt;/ul&gt;&lt;ul style=&quot;margin-top: 0 ; margin-bottom: 0&quot;&gt;&lt;li dir=&quot;ltr&quot; style=&quot;list-style-type: circle ; font-family: &amp;#34;arial&amp;#34; ; background-color: transparent ; vertical-align: baseline ; margin-left: 36pt&quot;&gt;&lt;p dir=&quot;ltr&quot; style=&quot;line-height: 1.2 ; background-color: rgb(255 , 255 , 255) ; margin-top: 0pt ; margin-bottom: 0pt&quot;&gt;&lt;span style=&quot;background-color: transparent ; vertical-align: baseline&quot;&gt;Methods:&lt;/span&gt;&lt;/p&gt;&lt;/li&gt;&lt;ul style=&quot;margin-top: 0 ; margin-bottom: 0&quot;&gt;&lt;li dir=&quot;ltr&quot; style=&quot;list-style-type: square ; font-family: &amp;#34;arial&amp;#34; ; background-color: transparent ; vertical-align: baseline ; margin-left: 36pt&quot;&gt;&lt;p dir=&quot;ltr&quot; style=&quot;line-height: 1.2 ; background-color: rgb(255 , 255 , 255) ; margin-top: 0pt ; margin-bottom: 0pt&quot;&gt;&lt;span style=&quot;background-color: transparent ; vertical-align: baseline&quot;&gt;Add the habit&lt;/span&gt;&lt;/p&gt;&lt;/li&gt;&lt;li dir=&quot;ltr&quot; style=&quot;list-style-type: square ; font-family: &amp;#34;arial&amp;#34; ; background-color: transparent ; vertical-align: baseline ; margin-left: 36pt&quot;&gt;&lt;p dir=&quot;ltr&quot; style=&quot;line-height: 1.2 ; background-color: rgb(255 , 255 , 255) ; margin-top: 0pt ; margin-bottom: 0pt&quot;&gt;&lt;span style=&quot;background-color: transparent ; vertical-align: baseline&quot;&gt;Edit the habit details&lt;/span&gt;&lt;/p&gt;&lt;/li&gt;&lt;li dir=&quot;ltr&quot; style=&quot;list-style-type: square ; font-family: &amp;#34;arial&amp;#34; ; background-color: transparent ; vertical-align: baseline ; margin-left: 36pt&quot;&gt;&lt;p dir=&quot;ltr&quot; style=&quot;line-height: 1.2 ; background-color: rgb(255 , 255 , 255) ; margin-top: 0pt ; margin-bottom: 0pt&quot;&gt;&lt;span style=&quot;background-color: transparent ; vertical-align: baseline&quot;&gt;Share a HabitEvent&lt;/span&gt;&lt;/p&gt;&lt;/li&gt;&lt;li dir=&quot;ltr&quot; style=&quot;list-style-type: square ; font-family: &amp;#34;arial&amp;#34; ; background-color: transparent ; vertical-align: baseline ; margin-left: 36pt&quot;&gt;&lt;p dir=&quot;ltr&quot; style=&quot;line-height: 1.2 ; background-color: rgb(255 , 255 , 255) ; margin-top: 0pt ; margin-bottom: 0pt&quot;&gt;&lt;span style=&quot;background-color: transparent ; vertical-align: baseline&quot;&gt;Make a Habit public or private&lt;/span&gt;&lt;/p&gt;&lt;/li&gt;&lt;li dir=&quot;ltr&quot; style=&quot;list-style-type: square ; font-family: &amp;#34;arial&amp;#34; ; background-color: transparent ; vertical-align: baseline ; margin-left: 36pt&quot;&gt;&lt;p dir=&quot;ltr&quot; style=&quot;line-height: 1.2 ; background-color: rgb(255 , 255 , 255) ; margin-top: 0pt ; margin-bottom: 0pt&quot;&gt;&lt;span style=&quot;background-color: transparent ; vertical-align: baseline&quot;&gt;Delete the habit&lt;/span&gt;&lt;/p&gt;&lt;/li&gt;&lt;li dir=&quot;ltr&quot; style=&quot;list-style-type: square ; font-family: &amp;#34;arial&amp;#34; ; background-color: transparent ; vertical-align: baseline ; margin-left: 36pt&quot;&gt;&lt;p dir=&quot;ltr&quot; style=&quot;line-height: 1.2 ; background-color: rgb(255 , 255 , 255) ; margin-top: 0pt ; margin-bottom: 0pt&quot;&gt;&lt;span style=&quot;background-color: transparent ; vertical-align: baseline&quot;&gt;Request or add a follower&lt;/span&gt;&lt;/p&gt;&lt;/li&gt;&lt;li dir=&quot;ltr&quot; style=&quot;list-style-type: square ; font-family: &amp;#34;arial&amp;#34; ; background-color: transparent ; vertical-align: baseline ; margin-left: 36pt&quot;&gt;&lt;p dir=&quot;ltr&quot; style=&quot;line-height: 1.2 ; background-color: rgb(255 , 255 , 255) ; margin-top: 0pt ; margin-bottom: 0pt&quot;&gt;&lt;span style=&quot;background-color: transparent ; vertical-align: baseline&quot;&gt;Get/give access to all the habits of this profile&lt;/span&gt;&lt;/p&gt;&lt;/li&gt;&lt;/ul&gt;&lt;/ul&gt;&lt;/span&gt;" style="text;html=1;strokeColor=none;fillColor=none;align=left;verticalAlign=middle;whiteSpace=wrap;rounded=0;" parent="Yk_99B-b_8awWAHzNRga-33" vertex="1">
          <mxGeometry y="80" width="220" height="350" as="geometry" />
        </mxCell>
        <mxCell id="Yk_99B-b_8awWAHzNRga-35" value="" style="line;strokeWidth=1;fillColor=none;align=left;verticalAlign=middle;spacingTop=-1;spacingLeft=3;spacingRight=3;rotatable=0;labelPosition=right;points=[];portConstraint=eastwest;" parent="Yk_99B-b_8awWAHzNRga-33" vertex="1">
          <mxGeometry y="430" width="220" height="18" as="geometry" />
        </mxCell>
        <mxCell id="Yk_99B-b_8awWAHzNRga-36" value="Collaborators" style="text;strokeColor=none;fillColor=none;align=left;verticalAlign=top;spacingLeft=4;spacingRight=4;overflow=hidden;rotatable=0;points=[[0,0.5],[1,0.5]];portConstraint=eastwest;" parent="Yk_99B-b_8awWAHzNRga-33" vertex="1">
          <mxGeometry y="448" width="220" height="70" as="geometry" />
        </mxCell>
        <mxCell id="Yk_99B-b_8awWAHzNRga-37" value="Visual Indicator" style="swimlane;fontStyle=1;align=center;verticalAlign=top;childLayout=stackLayout;horizontal=1;startSize=26;horizontalStack=0;resizeParent=1;resizeParentMax=0;resizeLast=0;collapsible=1;marginBottom=0;" parent="WIyWlLk6GJQsqaUBKTNV-1" vertex="1">
          <mxGeometry x="520" y="320" width="270" height="288" as="geometry" />
        </mxCell>
        <mxCell id="Yk_99B-b_8awWAHzNRga-38" value="Responsibilities&#xa;&#xa;* Attributes:&#xa;Â Â Â Â * Habit&#xa;Â Â Â Â * WellnessPercentage&#xa;Â Â Â Â * List of HabitEvents&#xa;&#xa;* Methods:&#xa;Â Â Â Â * Formulate a wellnessPercentage from &#xa;Â  Â  Â  a list of habit events of a particular habit&#xa;" style="text;strokeColor=none;fillColor=none;align=left;verticalAlign=top;spacingLeft=4;spacingRight=4;overflow=hidden;rotatable=0;points=[[0,0.5],[1,0.5]];portConstraint=eastwest;" parent="Yk_99B-b_8awWAHzNRga-37" vertex="1">
          <mxGeometry y="26" width="270" height="174" as="geometry" />
        </mxCell>
        <mxCell id="Yk_99B-b_8awWAHzNRga-39" value="" style="line;strokeWidth=1;fillColor=none;align=left;verticalAlign=middle;spacingTop=-1;spacingLeft=3;spacingRight=3;rotatable=0;labelPosition=right;points=[];portConstraint=eastwest;" parent="Yk_99B-b_8awWAHzNRga-37" vertex="1">
          <mxGeometry y="200" width="270" height="18" as="geometry" />
        </mxCell>
        <mxCell id="Yk_99B-b_8awWAHzNRga-40" value="Collaborators" style="text;strokeColor=none;fillColor=none;align=left;verticalAlign=top;spacingLeft=4;spacingRight=4;overflow=hidden;rotatable=0;points=[[0,0.5],[1,0.5]];portConstraint=eastwest;" parent="Yk_99B-b_8awWAHzNRga-37" vertex="1">
          <mxGeometry y="218" width="270" height="70" as="geometry" />
        </mxCell>
      </root>
    </mxGraphModel>
  </diagram>
</mxfile>
